<?xml version="1.0" encoding="UTF-8"?>
<svg xmlns="http://www.w3.org/2000/svg" xmlns:xlink="http://www.w3.org/1999/xlink" viewBox="0 0 95 95">
  <defs>
    <style>
      .cls-1 {
        fill: url(#New_Gradient_Swatch_20-23);
      }

      .cls-2 {
        fill: url(#New_Gradient_Swatch_20-11);
      }

      .cls-3 {
        fill: url(#New_Gradient_Swatch_20-30);
      }

      .cls-3, .cls-4, .cls-5, .cls-6, .cls-7 {
        mix-blend-mode: multiply;
      }

      .cls-8 {
        fill: url(#New_Gradient_Swatch_20-20);
      }

      .cls-9 {
        fill: url(#New_Gradient_Swatch_20-29);
      }

      .cls-4 {
        fill: url(#radial-gradient-6);
      }

      .cls-4, .cls-6, .cls-7 {
        opacity: .7;
      }

      .cls-10 {
        fill: url(#New_Gradient_Swatch_20-6);
      }

      .cls-11 {
        fill: url(#New_Gradient_Swatch_20-4);
      }

      .cls-12 {
        fill: url(#New_Gradient_Swatch_20-3);
      }

      .cls-5 {
        fill: url(#radial-gradient);
      }

      .cls-13 {
        fill: #fff;
      }

      .cls-14 {
        fill: url(#New_Gradient_Swatch_20-12);
      }

      .cls-15 {
        mask: url(#mask);
      }

      .cls-16 {
        fill: url(#New_Gradient_Swatch_20-25);
      }

      .cls-17 {
        opacity: .46;
      }

      .cls-18 {
        fill: url(#New_Gradient_Swatch_20-19);
      }

      .cls-19, .cls-20 {
        fill: none;
      }

      .cls-21 {
        fill: url(#radial-gradient-5);
      }

      .cls-20 {
        stroke: #b22b77;
        stroke-miterlimit: 10;
        stroke-width: 1.01px;
      }

      .cls-22 {
        fill: url(#radial-gradient-10);
      }

      .cls-22, .cls-23, .cls-24, .cls-25, .cls-26, .cls-27, .cls-28 {
        mix-blend-mode: screen;
      }

      .cls-29 {
        fill: url(#New_Gradient_Swatch_20-9);
      }

      .cls-30 {
        fill: url(#New_Gradient_Swatch_20-22);
      }

      .cls-31 {
        isolation: isolate;
      }

      .cls-32 {
        fill: url(#New_Gradient_Swatch_20-31);
        mix-blend-mode: overlay;
      }

      .cls-23 {
        fill: url(#New_Gradient_Swatch_20-34);
      }

      .cls-23, .cls-26 {
        opacity: .5;
      }

      .cls-6 {
        fill: url(#radial-gradient-9);
      }

      .cls-33 {
        fill: url(#New_Gradient_Swatch_20-24);
      }

      .cls-34 {
        fill: url(#radial-gradient-8);
      }

      .cls-35 {
        fill: url(#radial-gradient-2);
      }

      .cls-36 {
        fill: url(#New_Gradient_Swatch_20-17);
      }

      .cls-24 {
        fill: url(#radial-gradient-4);
      }

      .cls-25 {
        fill: url(#radial-gradient-7);
      }

      .cls-37 {
        fill: url(#New_Gradient_Swatch_20-13);
      }

      .cls-38 {
        fill: url(#New_Gradient_Swatch_20-10);
      }

      .cls-39 {
        fill: url(#New_Gradient_Swatch_20-5);
      }

      .cls-40 {
        fill: url(#New_Gradient_Swatch_20-2);
      }

      .cls-41 {
        fill: url(#New_Gradient_Swatch_20-16);
      }

      .cls-26 {
        fill: url(#New_Gradient_Swatch_20-35);
      }

      .cls-27 {
        fill: url(#New_Gradient_Swatch_20-33);
        opacity: .3;
      }

      .cls-42 {
        fill: #1d1d1b;
      }

      .cls-43 {
        fill: url(#New_Gradient_Swatch_20-27);
      }

      .cls-28 {
        fill: url(#New_Gradient_Swatch_20-32);
      }

      .cls-44 {
        fill: url(#New_Gradient_Swatch_20-14);
      }

      .cls-45 {
        fill: url(#New_Gradient_Swatch_20-21);
      }

      .cls-46 {
        fill: url(#New_Gradient_Swatch_20-28);
      }

      .cls-7 {
        fill: url(#radial-gradient-3);
      }

      .cls-47 {
        fill: url(#New_Gradient_Swatch_20-8);
      }

      .cls-48 {
        fill: url(#New_Gradient_Swatch_20-15);
      }

      .cls-49 {
        fill: url(#New_Gradient_Swatch_20);
      }

      .cls-50 {
        clip-path: url(#clippath);
      }

      .cls-51 {
        fill: url(#New_Gradient_Swatch_20-18);
      }

      .cls-52 {
        fill: url(#New_Gradient_Swatch_20-7);
      }

      .cls-53 {
        fill: url(#New_Gradient_Swatch_20-26);
      }
    </style>
    <linearGradient id="New_Gradient_Swatch_20" data-name="New Gradient Swatch 20" x1="72.13" y1="59.16" x2="77.3" y2="61.78" gradientUnits="userSpaceOnUse">
      <stop offset="0" stop-color="#b22c75"/>
      <stop offset="1" stop-color="#1b1514"/>
    </linearGradient>
    <linearGradient id="New_Gradient_Swatch_20-2" data-name="New Gradient Swatch 20" x1="6.84" y1="47.49" x2="27.3" y2="47.49" xlink:href="#New_Gradient_Swatch_20"/>
    <linearGradient id="New_Gradient_Swatch_20-3" data-name="New Gradient Swatch 20" x1="61.7" y1="29.38" x2="90.57" y2="29.38" xlink:href="#New_Gradient_Swatch_20"/>
    <clipPath id="clippath">
      <rect class="cls-19" x="20.55" y="30.31" width="49.16" height="35.32"/>
    </clipPath>
    <linearGradient id="New_Gradient_Swatch_20-4" data-name="New Gradient Swatch 20" x1="20.79" y1="50.83" x2="34.91" y2="50.83" xlink:href="#New_Gradient_Swatch_20"/>
    <linearGradient id="New_Gradient_Swatch_20-5" data-name="New Gradient Swatch 20" x1="21" y1="63.26" x2="23.31" y2="63.26" xlink:href="#New_Gradient_Swatch_20"/>
    <linearGradient id="New_Gradient_Swatch_20-6" data-name="New Gradient Swatch 20" x1="20.93" y1="64.26" x2="24.78" y2="64.26" xlink:href="#New_Gradient_Swatch_20"/>
    <linearGradient id="New_Gradient_Swatch_20-7" data-name="New Gradient Swatch 20" x1="49.26" y1="39.63" x2="59.44" y2="39.63" xlink:href="#New_Gradient_Swatch_20"/>
    <linearGradient id="New_Gradient_Swatch_20-8" data-name="New Gradient Swatch 20" x1="52.31" y1="38.25" x2="57.87" y2="38.25" xlink:href="#New_Gradient_Swatch_20"/>
    <linearGradient id="New_Gradient_Swatch_20-9" data-name="New Gradient Swatch 20" x1="31.81" y1="40.98" x2="60.51" y2="40.98" xlink:href="#New_Gradient_Swatch_20"/>
    <linearGradient id="New_Gradient_Swatch_20-10" data-name="New Gradient Swatch 20" x1="53.3" y1="66.59" x2="15.16" y2="69.88" xlink:href="#New_Gradient_Swatch_20"/>
    <linearGradient id="New_Gradient_Swatch_20-11" data-name="New Gradient Swatch 20" x1="48.96" y1="59.18" x2="74.87" y2="85.09" xlink:href="#New_Gradient_Swatch_20"/>
    <linearGradient id="New_Gradient_Swatch_20-12" data-name="New Gradient Swatch 20" x1="56" y1="68.15" x2="65.12" y2="68.15" xlink:href="#New_Gradient_Swatch_20"/>
    <linearGradient id="New_Gradient_Swatch_20-13" data-name="New Gradient Swatch 20" x1="58.04" y1="61.09" x2="62.83" y2="75.65" xlink:href="#New_Gradient_Swatch_20"/>
    <linearGradient id="New_Gradient_Swatch_20-14" data-name="New Gradient Swatch 20" x1="42.65" y1="67.37" x2="67.29" y2="67.37" xlink:href="#New_Gradient_Swatch_20"/>
    <linearGradient id="New_Gradient_Swatch_20-15" data-name="New Gradient Swatch 20" x1="39.54" y1="43.42" x2="61.46" y2="82.78" xlink:href="#New_Gradient_Swatch_20"/>
    <linearGradient id="New_Gradient_Swatch_20-16" data-name="New Gradient Swatch 20" x1="28.53" y1="66.84" x2="39.84" y2="66.47" xlink:href="#New_Gradient_Swatch_20"/>
    <linearGradient id="New_Gradient_Swatch_20-17" data-name="New Gradient Swatch 20" x1="34.21" y1="57.26" x2="41.31" y2="57.26" xlink:href="#New_Gradient_Swatch_20"/>
    <linearGradient id="New_Gradient_Swatch_20-18" data-name="New Gradient Swatch 20" x1="20.77" y1="60.92" x2="55.11" y2="60.92" xlink:href="#New_Gradient_Swatch_20"/>
    <linearGradient id="New_Gradient_Swatch_20-19" data-name="New Gradient Swatch 20" x1="37" y1="67.09" x2="39.87" y2="67.09" xlink:href="#New_Gradient_Swatch_20"/>
    <linearGradient id="New_Gradient_Swatch_20-20" data-name="New Gradient Swatch 20" x1="38.66" y1="71.75" x2="51.35" y2="71.75" xlink:href="#New_Gradient_Swatch_20"/>
    <linearGradient id="New_Gradient_Swatch_20-21" data-name="New Gradient Swatch 20" x1="42.23" y1="75.61" x2="45.48" y2="75.61" xlink:href="#New_Gradient_Swatch_20"/>
    <linearGradient id="New_Gradient_Swatch_20-22" data-name="New Gradient Swatch 20" x1="40.44" y1="73.24" x2="47.66" y2="73.24" xlink:href="#New_Gradient_Swatch_20"/>
    <linearGradient id="New_Gradient_Swatch_20-23" data-name="New Gradient Swatch 20" x1="46.46" y1="43.55" x2="62.74" y2="43.55" xlink:href="#New_Gradient_Swatch_20"/>
    <linearGradient id="New_Gradient_Swatch_20-24" data-name="New Gradient Swatch 20" x1="37.28" y1="14.2" x2="49.83" y2="62.81" xlink:href="#New_Gradient_Swatch_20"/>
    <linearGradient id="New_Gradient_Swatch_20-25" data-name="New Gradient Swatch 20" x1="35.42" y1="33.68" x2="56.68" y2="64.15" xlink:href="#New_Gradient_Swatch_20"/>
    <linearGradient id="New_Gradient_Swatch_20-26" data-name="New Gradient Swatch 20" x1="58.69" y1="50.8" x2="66.66" y2="50.8" xlink:href="#New_Gradient_Swatch_20"/>
    <linearGradient id="New_Gradient_Swatch_20-27" data-name="New Gradient Swatch 20" x1="61.23" y1="50.66" x2="66.41" y2="50.66" xlink:href="#New_Gradient_Swatch_20"/>
    <linearGradient id="New_Gradient_Swatch_20-28" data-name="New Gradient Swatch 20" x1="20.89" y1="68.93" x2="36.7" y2="68.93" xlink:href="#New_Gradient_Swatch_20"/>
    <linearGradient id="New_Gradient_Swatch_20-29" data-name="New Gradient Swatch 20" x1="24.84" y1="77.95" x2="33.78" y2="69.28" xlink:href="#New_Gradient_Swatch_20"/>
    <linearGradient id="New_Gradient_Swatch_20-30" data-name="New Gradient Swatch 20" x1="20.68" y1="57.7" x2="67.21" y2="57.7" xlink:href="#New_Gradient_Swatch_20"/>
    <radialGradient id="radial-gradient" cx="89.73" cy="59.75" fx="78.52" fy="52.3" r="24.82" gradientTransform="translate(-40.16 1.78) scale(.94)" gradientUnits="userSpaceOnUse">
      <stop offset=".14" stop-color="#fff"/>
      <stop offset=".19" stop-color="#cdcacb"/>
      <stop offset=".24" stop-color="#a29d9e"/>
      <stop offset=".29" stop-color="#7d7677"/>
      <stop offset=".35" stop-color="#5e5658"/>
      <stop offset=".41" stop-color="#473e3f"/>
      <stop offset=".46" stop-color="#372c2e"/>
      <stop offset=".53" stop-color="#2d2224"/>
      <stop offset=".6" stop-color="#2a1f21"/>
    </radialGradient>
    <mask id="mask" x="20.68" y="34.43" width="46.55" height="46.63" maskUnits="userSpaceOnUse">
      <path class="cls-5" d="M67.23,57.8c0,12.85-10.42,23.27-23.27,23.27s-23.27-10.42-23.27-23.27,10.42-23.27,23.27-23.27,23.27,10.42,23.27,23.27Z"/>
    </mask>
    <linearGradient id="New_Gradient_Swatch_20-31" data-name="New Gradient Swatch 20" x1="20.68" y1="57.7" x2="67.21" y2="57.7" xlink:href="#New_Gradient_Swatch_20"/>
    <linearGradient id="New_Gradient_Swatch_20-32" data-name="New Gradient Swatch 20" x1="20.68" y1="57.7" x2="67.21" y2="57.7" xlink:href="#New_Gradient_Swatch_20"/>
    <linearGradient id="New_Gradient_Swatch_20-33" data-name="New Gradient Swatch 20" x1="20.68" y1="57.7" x2="67.21" y2="57.7" xlink:href="#New_Gradient_Swatch_20"/>
    <linearGradient id="New_Gradient_Swatch_20-34" data-name="New Gradient Swatch 20" x1="20.5" y1="57.7" x2="67.21" y2="57.7" xlink:href="#New_Gradient_Swatch_20"/>
    <linearGradient id="New_Gradient_Swatch_20-35" data-name="New Gradient Swatch 20" x1="20.9" y1="57.26" x2="65.76" y2="57.26" xlink:href="#New_Gradient_Swatch_20"/>
    <radialGradient id="radial-gradient-2" cx="90.88" cy="34.47" fx="90.88" fy="34.47" r="6.5" gradientTransform="translate(-40.16 1.78) scale(.94)" gradientUnits="userSpaceOnUse">
      <stop offset=".23" stop-color="#d8d5d5"/>
      <stop offset=".54" stop-color="#828181"/>
      <stop offset="1" stop-color="#2f272a"/>
    </radialGradient>
    <radialGradient id="radial-gradient-3" cx="89.61" cy="36.81" fx="89.61" fy="36.81" r="4.25" gradientTransform="translate(-40.16 1.78) scale(.94)" gradientUnits="userSpaceOnUse">
      <stop offset=".73" stop-color="#d8d5d5"/>
      <stop offset=".92" stop-color="#625b5d"/>
      <stop offset="1" stop-color="#2f272a"/>
    </radialGradient>
    <radialGradient id="radial-gradient-4" cx="90.43" cy="36.53" fx="90.43" fy="36.53" r="3.36" gradientTransform="translate(-40.16 1.78) scale(.94)" gradientUnits="userSpaceOnUse">
      <stop offset="0" stop-color="#fff"/>
      <stop offset=".09" stop-color="#f6f6f6"/>
      <stop offset=".24" stop-color="#dfdede"/>
      <stop offset=".42" stop-color="#bab8b8"/>
      <stop offset=".63" stop-color="#868382"/>
      <stop offset=".86" stop-color="#443f3f"/>
      <stop offset="1" stop-color="#1b1514"/>
    </radialGradient>
    <radialGradient id="radial-gradient-5" cx="-183.73" cy="-216.76" fx="-183.73" fy="-216.76" r="7.35" gradientTransform="translate(250.43 226.84) rotate(-7.33) scale(.94)" xlink:href="#radial-gradient-2"/>
    <radialGradient id="radial-gradient-6" cx="98.92" cy="50.3" fx="98.92" fy="50.3" r="5.85" xlink:href="#radial-gradient-3"/>
    <radialGradient id="radial-gradient-7" cx="99.85" cy="50.86" fx="99.85" fy="50.86" r="3.48" xlink:href="#radial-gradient-4"/>
    <radialGradient id="radial-gradient-8" cx="-463.51" cy="-574.17" fx="-463.51" fy="-574.17" r="6.61" gradientTransform="translate(624.94 443.39) rotate(-15.88) scale(.94)" xlink:href="#radial-gradient-2"/>
    <radialGradient id="radial-gradient-9" cx="105.35" cy="47.06" fx="105.35" fy="47.06" r="5.28" xlink:href="#radial-gradient-3"/>
    <radialGradient id="radial-gradient-10" cx="106.08" cy="47.52" fx="106.08" fy="47.52" r="3.05" xlink:href="#radial-gradient-4"/>
  </defs>
  <g class="cls-31">
    <g id="Capa_1">
      <g>
        <path class="cls-13" d="M92.07,14.82c-.26-.76-.63-1.47-1.1-2.12-.39-.53-.85-1.02-1.36-1.46-.9-.77-1.76-1.19-2.04-1.33-.78-.38-2.36-1.03-4.23-1.03-1.14,0-2.22.24-3.21.7-.93.44-1.72,1.05-2.43,1.87-.6.69-1.05,1.44-1.39,1.99-.51.84-.87,1.63-1.18,2.58-.28.86-.51,1.8-.83,3.11-.03.14-.07.28-.1.43-.84,3.45-1.42,5.66-1.9,7.18-.42,1.36-.72,2.05-1.1,2.79-.73,1.45-1.63,2.78-1.7,2.88-.33.48-.68.91-1.37,1.75-.56.69-.98,1.21-1.31,1.6-.03.04-.06.07-.09.11-.11-.13-.21-.28-.3-.45-.27-.5-.42-1.05-.4-1.51,0-.21.04-.31.26-.83.21-.51.54-1.28.91-2.57.2-.68.34-1.16.44-1.57.11-.45.2-.93.14-1.42-.07-.59-.32-1.15-.73-1.66-.47-.58-1.14-1.09-2.05-1.56-.98-.5-2.26-.96-3.82-1.36-1.77-.46-3.96-.87-6.5-1.21-3.89-.52-7.77-.79-11.54-.79-2.57,0-5.02.12-7.48.37-2.35.24-4.5.55-6.38.94-1.73.35-3.24.76-4.49,1.22-1.21.44-2.18.93-2.88,1.45-.41.31-.73.62-.97.96-.15.21-.27.44-.36.67-.11.28-.16.56-.17.85,0,.27.04,1.02.26,1.91.15.61.3,1.01.42,1.3.11.29.14.37.16.57.02.31.02.42-.03.52-.05.1-.14.18-.27.25-.11.06-.23.09-.39.09s-.29-.03-.36-.05c-.34-.07-.59-.29-1.61-1.29h-.01c-.46-.46-1.27-1.24-2.21-2.15l-.33-.31s0,0,0,0c-.03-.03-.05-.05-.08-.08-.33-.32-.78-.5-1.24-.5-.01,0-.02,0-.03,0-.47,0-.92.21-1.25.55-.33.34-.51.8-.5,1.27,0,.47.2.92.54,1.25l.03.03.04.04c.39.37.76.76,1.11,1.17-.06,0-.11,0-.17,0-.44,0-.88.16-1.22.48-.69.64-.75,1.71-.16,2.43,1.82,2.21,3.82,4.48,6.27,7.13l1.74,1.96.92,1.04c-.48.92-.91,1.87-1.28,2.83-.65,1.67-1.13,3.4-1.46,5.17l-3.79-3.59c-.34-.32-.78-.49-1.23-.49-.28,0-.55.06-.81.2-.41.21-.71.57-.86.98l-4.21-4.05c-.33-.32-.77-.5-1.24-.5,0,0-.01,0-.02,0-.47,0-.91.19-1.24.52l-.09.09-.09.09c-.33.33-.52.78-.52,1.24,0,.47.17.92.5,1.25l5.65,5.88,7.57,7.87v1.62H6.18c-.5,0-.98.1-1.43.29-.44.19-.83.45-1.17.79-.34.34-.6.73-.79,1.17-.19.45-.29.94-.29,1.43v14.64c0,.5.1.98.29,1.43.19.44.45.83.79,1.17.34.34.73.6,1.17.79.45.19.94.29,1.43.29h78.38c.5,0,.98-.1,1.43-.29.44-.19.83-.45,1.17-.79s.6-.73.79-1.17c.19-.45.29-.94.29-1.43v-14.64c0-.5-.1-.98-.29-1.43-.19-.44-.45-.83-.79-1.17s-.73-.6-1.17-.79c-.45-.19-.94-.29-1.43-.29h-8.36c.12-.25.28-.57.42-.89,1.49-3.22,2.08-7.61,2.11-7.79.15-1.13.91-6.89,1.34-9.57.37-2.33.63-4.01.94-5.44.31-1.45.63-2.55,1.08-3.68.71-1.78,1.69-3.71,2.83-5.57,1.22-2,2.58-3.85,3.94-5.35.6-.67,1.15-1.43,1.67-2.34.42-.72.81-1.53,1.21-2.46.37-.87.61-1.75.72-2.63.15-1.23.02-2.44-.37-3.59Z"/>
        <g>
          <path class="cls-13" d="M58.83,44.59s3.82-.51,10.89-9c7.06-8.49,8.92,4.26,8.92,4.26l-.54,7.57s-.35,3.82-.9,6.65-2.89,15.35-8.26,12.36c-.75-.42-2.67.04-3.46-.63-4.85-4.11-8.82-13.04-8.82-13.04l2.18-8.18Z"/>
          <path class="cls-49" d="M73.29,65.61c1.61-3.02,3.38-6.62,3.48-10.03,0,0-.14-.55-.5-.13s-.39,2.63-1.24,5.21-2.12,4.19-1.74,4.95,0,0,0,0"/>
          <path class="cls-40" d="M24.09,65.51c-5.87-6.11-11.38-11.84-17.25-17.95.06-.06.13-.13.19-.19,5.31,5.11,10.63,10.22,15.94,15.33.17-.1.34-.19.52-.29-.48-.87-.81-1.87-1.46-2.6-2.25-2.5-4.6-4.9-6.91-7.35-.44-.47-.85-.96-.96-1.73,2.64,2.5,5.27,4.99,8.29,7.85,0-.99.02-1.56,0-2.12-.15-3.42.48-6.71,1.96-9.79.48-1.01.19-1.56-.48-2.27-3.29-3.45-6.53-6.95-9.58-10.64,3.69,3.46,7.37,6.91,11.05,10.36,1.32-.9.96-1.58.12-2.46-3.77-3.94-7.48-7.94-10.96-12.2,4.27,4,8.54,8.01,12.75,11.96"/>
          <path class="cls-12" d="M61.7,42.9c7.83-5.75,12.75-13.18,14.07-22.9.26-1.93,1-3.88,1.91-5.61,1.84-3.51,5.37-4.5,8.94-2.78,3.51,1.69,4.88,5.12,3.32,8.76-.65,1.53-1.47,3.08-2.57,4.3-5.64,6.25-8.72,13.18-9.06,21.71,0,.35-.06.96-.09,1.19-.09.67-.7.4-.69-.19.15-2.48.29-4.74.45-7.22-.23-.04-.44-.31-.67-.35-.24,1.41-.62,2.98-.86,4.39-.09,0-.02-.17-.11-.17.08-1.17.27-2.34.21-3.5-.03-.58-.1-1.26-.82-1.71-.04-.03-.11-.05-.17-.08-1.75-.81-3.6-2.39-5.23-2.19-1.48.18-2.71,2.3-4.06,3.56-1.31,1.22-2.62,2.44-3.87,3.59"/>
          <path d="M82.3,29.66c1.74-2.16,3.57-4.28,5.19-6.53.86-1.19,1.51-2.58,1.98-3.98.78-2.3.06-4.29-1.79-5.84-3.47-2.89-8.06-2.01-9.65,2.2-1.32,3.5-1.97,7.25-2.95,10.97,2.56,1.13,4.88,2.15,7.22,3.18Z"/>
          <path d="M73.74,29.97c-.54,1.15-.97,2.06-1.45,3.08,1.89.87,3.61,1.67,5.47,2.53.49-1.07.93-2.04,1.41-3.08-1.88-.88-3.54-1.66-5.42-2.54Z"/>
          <path class="cls-13" d="M82.3,29.66c-2.33-1.03-4.65-2.05-7.22-3.18.97-3.73,1.63-7.48,2.95-10.97,1.59-4.21,6.18-5.09,9.65-2.2,1.86,1.55,2.58,3.54,1.79,5.84-.47,1.39-1.13,2.79-1.98,3.98-1.63,2.26-3.45,4.37-5.19,6.53ZM83.5,12.75c-3.37.2-5.45,2.75-5.49,6.58,1.17-2.86,1.93-5.64,5.49-6.58Z"/>
          <path class="cls-13" d="M73.74,29.97c1.88.88,3.54,1.66,5.42,2.54-.47,1.04-.92,2.01-1.41,3.08-1.86-.86-3.58-1.66-5.47-2.53.48-1.02.91-1.94,1.45-3.08Z"/>
          <path d="M83.5,12.75c-3.56.94-4.32,3.72-5.49,6.58.04-3.83,2.12-6.39,5.49-6.58Z"/>
          <g class="cls-50">
            <g>
              <path class="cls-11" d="M29.73,47.95c3.56-1.6,3.65,1.55,2.69,4.11-.96,2.55.82,3.6.64,2.05-.18-1.55.36-3.06,1.55-5.98,1.19-2.92-1.14-4.15-6.16-1.46-3.28,1.76-5.91,4.81-7.33,6.71-.18,1.01-.29,2.04-.33,3.09,2.25-3.48,6.17-7.28,8.94-8.52Z"/>
              <path class="cls-39" d="M22.93,60.66c-.65-.52-1.42-.24-1.93.06.27,1.89.76,3.71,1.46,5.43-.17-2.86,1.62-4.58.48-5.49Z"/>
              <path class="cls-10" d="M24.39,59.18c-1.1-.62-2.77.48-3.46,1,.02.18.04.36.07.54.51-.3,1.28-.58,1.93-.06,1.15.91-.64,2.64-.48,5.49.48,1.17,1.04,2.3,1.69,3.38-1.49-6.48,1.69-9.54.24-10.35Z"/>
              <path class="cls-52" d="M52.17,40.79c-.53,4.74,5.11,5.41,7.26-.78-.51-.45-1.03-.87-1.57-1.27-.73,1.86-2.92,3.24-3.37.67-.26-1.53-1.25-2.81-2.19-3.72-.99-.38-2.01-.69-3.05-.93,2.17,1.28,3.21,3.43,2.92,6.03Z"/>
              <path class="cls-47" d="M54.5,39.41c.44,2.57,2.63,1.18,3.37-.67-1.69-1.25-3.56-2.28-5.56-3.04.94.91,1.92,2.18,2.19,3.72Z"/>
              <path class="cls-29" d="M44.03,35.36c8.37.36,7.61,5.2,6.41,9.12-1.39,4.52,6.32,5.31,10.07-3.47-.35-.35-.71-.68-1.07-1.01-2.16,6.2-7.8,5.52-7.26.78.29-2.6-.75-4.75-2.92-6.03-1.68-.38-3.43-.59-5.23-.59-4.48,0-8.67,1.27-12.23,3.47,2.84-1.15,7.3-2.5,12.23-2.28Z"/>
              <path class="cls-38" d="M32.94,70.21c.15-3.26.46-6.43-1.95-6.5-2.42-.07-3.17-.59-2.9-3.83.27-3.24-1.03-4.91-3.95-3.69-1.44.6-2.57,1.51-3.35,2.27.02.46.05.91.1,1.37.77-.62,1.84-1.26,3.12-1.45,2.67-.39,2.99,2.01,1.78,5.63-1.21,3.63-1.12,6.75-.37,7,.75.25,1.98-4.57,4.24-4.52,3.13.07-1.17,9.07,7.04,13.03,1.93.64,3.97,1.03,6.09,1.15-8.43-1.07-10-7.21-9.85-10.46Z"/>
              <path class="cls-2" d="M60.95,57.81c-4.32-.64-4.75,1.83-3.1,3.34,1.38,1.27,2.62,3.26-2.13,9.83-2.55,3.53-2.61,6.08-2.11,7.68.83-.37,1.63-.8,2.4-1.26-.12-1.88,1.24-4.35,2.97-7.22,2.42-4.02.37-6.6-.23-8.68-.59-2.08.82-2.86,2.28-2.49,1.3.33,5.38,2.6,3.69,9.12.44-.85.83-1.74,1.16-2.64.22-4.56-2.08-7.24-4.93-7.66Z"/>
              <path class="cls-14" d="M61.02,58.99c-1.46-.37-2.88.41-2.28,2.49.59,2.08,2.64,4.67.23,8.68-1.73,2.87-3.09,5.35-2.97,7.22.9-.54,1.76-1.14,2.58-1.8-.11-1.15.43-2.78,1.97-5.18,1.01-1.57,1.65-4.16,1.2-6.04-.7-2.89,1.78-2.01,1.78,1.64,0,2.79-1.1,5.23-1.91,6.65,1.2-1.38,2.24-2.91,3.08-4.55,1.7-6.52-2.39-8.8-3.69-9.12Z"/>
              <path class="cls-37" d="M61.75,64.37c.46,1.88-.18,4.47-1.2,6.04-1.54,2.4-2.09,4.03-1.97,5.18,1.1-.88,2.12-1.86,3.05-2.93.81-1.41,1.91-3.86,1.91-6.65,0-3.65-2.48-4.53-1.78-1.64Z"/>
              <path class="cls-44" d="M53.82,57.26c-5.34,1.82-9.06.55-9.97.18-.91-.36-2.07.05-.18,1.19,2.5,1.49,10.51-.23,12.33,4.03,1.82,4.25-2.64,7.06-4.69,11.44-1.3,2.77-.14,4.35.89,5.14.48-.18.95-.37,1.41-.58-.49-1.6-.44-4.15,2.11-7.68,4.74-6.57,3.51-8.56,2.13-9.83-1.64-1.51-1.22-3.98,3.1-3.34,2.85.42,5.15,3.11,4.93,7.66.86-2.33,1.35-4.83,1.42-7.43-2.31-4.15-9-2.31-13.48-.78Z"/>
              <path class="cls-48" d="M51.31,74.09c2.05-4.38,6.51-7.18,4.69-11.44-1.82-4.26-9.83-2.54-12.33-4.03-1.9-1.13-.73-1.55.18-1.19.91.36,4.63,1.64,9.97-.18,4.48-1.53,11.16-3.37,13.48.78,0-.2,0-.4,0-.6,0-.36,0-.72-.02-1.07-2.47-3.22-7.97-1.46-15.09-.58-9.49,1.18-12.29-3-10.28-8.11,2.01-5.11,1.83-10.28-7.42-7.48-5.22,1.58-8.67,3.97-10.69,5.75-.6,1.05-1.11,2.15-1.55,3.3,2.22-2.48,6.04-5.76,11.51-6.98,9.25-2.07,7.3,4.68,5.17,10.04-2.13,5.35-.24,8.33,5.54,8.09,5.78-.24,10.52,1.1,10.64,4.14.17,4.07-6.71,7.12-6.45,11.07.14,2.15,1.3,3.37,2.36,4.04.4-.13.79-.26,1.18-.41-1.03-.79-2.19-2.37-.89-5.14Z"/>
              <path class="cls-41" d="M36.37,67.26c.88-3.83,1.22-6.36-2.13-7.36-2.45-.74-4.1-.64-3.01-4.23,1.1-3.59-1.78-3.89-5.25-2.39-2.3,1-4.2,2.91-5.22,4.09v.06c0,.34,0,.68.02,1.02.78-.77,1.91-1.68,3.35-2.27,2.92-1.21,4.22.46,3.95,3.69-.27,3.24.48,3.76,2.9,3.83,2.42.07,2.11,3.25,1.95,6.5-.15,3.25,1.43,9.39,9.85,10.46.41.02.83.03,1.25.03s.82-.01,1.22-.03h0c-10.28-1.16-9.77-9.58-8.89-13.41Z"/>
              <path class="cls-36" d="M38.44,60.72c-5.66-1.29-3.58-6.14-2.37-8.48.63-1.23-1.28-1.04-1.79,3.06-.52,4.11,2.37,5.69,4.53,6.18,2.08.47,1.41,1.16,2.01,1.43.39.18,1.64-1.28-2.37-2.19Z"/>
              <path class="cls-51" d="M48.66,75.6c-.27-3.95,6.61-7,6.45-11.07-.13-3.04-4.87-4.38-10.64-4.14-5.78.24-7.66-2.74-5.54-8.09,2.13-5.35,4.08-12.1-5.17-10.04-5.46,1.22-9.29,4.5-11.51,6.98-.5,1.32-.88,2.71-1.13,4.14,1.42-1.9,4.05-4.95,7.33-6.71,5.02-2.69,7.35-1.46,6.16,1.46-1.19,2.92-1.73,4.43-1.55,5.98.18,1.55-1.6.5-.64-2.05.96-2.55.87-5.7-2.69-4.11-2.77,1.24-6.69,5.04-8.94,8.52-.01.3-.02.61-.02.91,1.03-1.18,2.93-3.1,5.22-4.09,3.47-1.51,6.34-1.2,5.25,2.39-1.09,3.59.56,3.49,3.01,4.23,3.35,1,3.01,3.53,2.13,7.36-.77,3.37-1.26,10.29,5.62,12.69-1.85-1.09-4.14-3.72-3.04-10.02,1.74-10.02,17.7-8.12,10.58-.42-2.59,2.8-4.33,8.31,1.08,10.24.14-.04.28-.08.42-.12-1.06-.67-2.22-1.89-2.36-4.04ZM39.56,64.97c-1.19,1.6-2.24,3.33-2.14,4.86.09,1.53-.33,1.38-.39.72-.16-1.81.39-3.32,1.14-4.57.75-1.26,1.07-1.92.49-2.55-.58-.64,2.09-.05.9,1.55ZM40.81,62.91c-.59-.27.07-.96-2.01-1.43-2.16-.49-5.05-2.07-4.53-6.18.52-4.1,2.43-4.29,1.79-3.06-1.2,2.34-3.29,7.19,2.37,8.48,4.01.91,2.76,2.37,2.37,2.19Z"/>
              <path class="cls-18" d="M38.66,63.42c.58.64.26,1.3-.49,2.55-.75,1.25-1.31,2.77-1.14,4.57.06.66.48.81.39-.72-.09-1.53.96-3.26,2.14-4.86,1.19-1.6-1.48-2.19-.9-1.55Z"/>
              <path class="cls-8" d="M49.53,69.52c7.12-7.71-8.84-9.61-10.58.42-1.09,6.29,1.19,8.93,3.04,10.02.1.04.21.07.31.11-.92-.9-2.15-2.96-1.81-7.43.53-6.95,7.94-8.49,6.57-5.02-1.27,3.2-6.66,10.17.59,12.81,1-.16,1.99-.38,2.95-.66-5.41-1.93-3.67-7.44-1.08-10.24Z"/>
              <path class="cls-45" d="M43.61,72.18c1.37-2.7-.88-2.01-1.34,1.78-.36,2.96,1.66,5.64,2.57,6.67.14.02.28.04.42.05.07,0,.15,0,.22-.01-2.6-2.06-3.06-6.14-1.87-8.48Z"/>
              <path class="cls-30" d="M47.06,67.61c1.37-3.47-6.04-1.93-6.57,5.02-.34,4.47.89,6.53,1.81,7.43.76.24,1.6.43,2.54.56-.9-1.03-2.92-3.71-2.57-6.67.46-3.79,2.71-4.48,1.34-1.78-1.19,2.34-.73,6.43,1.87,8.48.74-.04,1.46-.13,2.18-.24-7.25-2.64-1.86-9.6-.59-12.81Z"/>
              <path class="cls-1" d="M48.62,43.62c-1.14,3.38-.5,7.07,3.7,7.8,3.18.55,8.53-3.77,10.42-7.82-.68-.92-1.42-1.78-2.23-2.59-3.75,8.78-11.46,7.98-10.07,3.47,1.07-3.49,1.79-7.71-3.98-8.85,1.92,1.16,3.68,3.46,2.15,7.98Z"/>
              <path class="cls-33" d="M62.74,43.6c-1.89,4.05-7.24,8.37-10.42,7.82-4.19-.73-4.84-4.43-3.7-7.8,1.53-4.52-.23-6.82-2.15-7.98-.71-.14-1.52-.23-2.43-.27-4.93-.21-9.39,1.14-12.23,2.28-2.33,1.44-4.38,3.27-6.06,5.41,3.6-3.09,9.19-5.19,15.16-5.19,7.25,0,7.44,4.93,5.79,10.04-1.64,5.11.41,8.85,9.03,5.7,5.81-2.12,8.05-5.21,8.9-7-.56-1.05-1.19-2.06-1.89-3.01Z"/>
              <path class="cls-16" d="M59.88,52.44c2.71-1.29,4.42-3.38,5.3-4.71-.17-.38-.36-.75-.55-1.11-.84,1.79-3.09,4.88-8.9,7-8.62,3.15-10.68-.59-9.03-5.7,1.64-5.11,1.46-10.04-5.79-10.04-5.97,0-11.56,2.1-15.16,5.19-.72.91-1.37,1.88-1.95,2.89,2.02-1.79,5.47-4.18,10.69-5.75,9.25-2.8,9.43,2.37,7.42,7.48-2.01,5.11.79,9.29,10.28,8.11,7.11-.88,12.62-2.64,15.09.58-.07-1.49-.28-2.94-.61-4.35-3.87,2.49-10.76,2.31-6.78.42Z"/>
              <path class="cls-53" d="M61.89,52.24c1.81-1.02,2.98-2.81,3.56-3.89-.09-.21-.18-.42-.28-.63-.88,1.33-2.59,3.43-5.3,4.71-3.98,1.89,2.9,2.08,6.78-.42-.08-.32-.16-.65-.25-.97-2.36,1.98-6.88,2.53-4.52,1.19Z"/>
              <path class="cls-43" d="M61.89,52.24c-2.36,1.34,2.16.79,4.52-1.19-.26-.92-.58-1.83-.95-2.7-.58,1.08-1.76,2.87-3.56,3.89Z"/>
              <path class="cls-46" d="M29.66,66.5c-2.26-.05-3.49,4.77-4.24,4.52-.75-.25-.84-3.38.37-7,1.21-3.63.89-6.02-1.78-5.63-1.28.19-2.35.83-3.12,1.45.01.12.03.24.04.35.7-.53,2.36-1.62,3.46-1,1.45.81-1.74,3.87-.24,10.35.5.82,1.05,1.6,1.64,2.35.66-.33,1.38-1.48,2.48-2.94.82-1.09,1.55-.31,1.46,2.38-.06,1.65.58,3.92,1.89,5.81,1.58,1,3.28,1.81,5.09,2.41-8.21-3.96-3.92-12.96-7.04-13.03Z"/>
              <path class="cls-9" d="M29.73,71.31c.09-2.69-.64-3.47-1.46-2.38-1.11,1.47-1.82,2.62-2.48,2.94,1.63,2.06,3.6,3.83,5.83,5.24-1.31-1.88-1.94-4.16-1.89-5.81Z"/>
              <g class="cls-17">
                <path class="cls-3" d="M67.21,57.7c0,12.85-10.42,23.27-23.27,23.27s-23.27-10.42-23.27-23.27,10.42-23.27,23.27-23.27,23.27,10.42,23.27,23.27Z"/>
                <g class="cls-15">
                  <path class="cls-32" d="M67.21,57.7c0,12.85-10.42,23.27-23.27,23.27s-23.27-10.42-23.27-23.27,10.42-23.27,23.27-23.27,23.27,10.42,23.27,23.27Z"/>
                </g>
                <path class="cls-28" d="M67.21,57.7c0,12.85-10.42,23.27-23.27,23.27s-23.27-10.42-23.27-23.27,10.42-23.27,23.27-23.27,23.27,10.42,23.27,23.27Z"/>
                <path class="cls-27" d="M67.21,57.7c0,12.85-10.42,23.27-23.27,23.27s-23.27-10.42-23.27-23.27,10.42-23.27,23.27-23.27,23.27,10.42,23.27,23.27Z"/>
                <path class="cls-23" d="M67.21,57.7c0,12.9-10.46,23.36-23.36,23.36s-23.36-10.46-23.36-23.36,10.46-23.36,23.36-23.36,23.36,10.46,23.36,23.36Z"/>
                <path class="cls-26" d="M65.76,57.26c0,12.39-10.04,22.42-22.43,22.42s-22.43-10.04-22.43-22.42,10.04-22.43,22.43-22.43,22.43,10.04,22.43,22.43Z"/>
              </g>
              <g>
                <path class="cls-35" d="M46.88,38.13c-.04,1.24-1.51,2.21-3.28,2.15-1.78-.05-3.19-1.1-3.15-2.34.04-1.24,1.51-2.21,3.28-2.15,1.78.05,3.19,1.1,3.15,2.34Z"/>
                <path class="cls-7" d="M43.55,38.88c-1.5-.04-2.58-.76-3.01-1.41-.05.15-.08.31-.09.47-.04,1.24,1.37,2.29,3.15,2.34,1.78.05,3.24-.91,3.28-2.15,0-.19-.03-.38-.09-.56-.51.89-1.7,1.35-3.24,1.31Z"/>
                <path class="cls-24" d="M41.43,36.43s.02-.01.06-.04c.04-.03.1-.07.18-.11.08-.04.18-.1.3-.15.06-.03.12-.05.19-.08.07-.02.14-.05.22-.07.07-.03.16-.04.24-.06.08-.02.17-.04.26-.05.18-.04.37-.05.57-.06.1,0,.2,0,.3,0,.1,0,.2,0,.31.02.1.01.21.02.32.04.1.02.21.04.31.07.1.03.2.06.3.09.1.04.2.07.3.11.19.09.37.18.54.3.08.06.17.11.24.18.07.06.14.12.21.19.03.03.06.07.09.1.03.04.05.07.08.1.03.04.05.07.08.1.02.04.04.07.06.11.04.07.08.13.11.2.03.07.06.13.07.19.02.06.04.12.05.17,0,.06.02.11.02.15.02.09,0,.16,0,.21,0,.05,0,.07,0,.07,0,0,0-.02,0-.07,0-.05,0-.12-.03-.21-.01-.04-.02-.09-.04-.15-.01-.05-.04-.1-.06-.16-.02-.06-.05-.12-.09-.18-.02-.03-.03-.06-.05-.09-.02-.03-.04-.06-.06-.09-.02-.03-.04-.06-.07-.1-.03-.03-.05-.06-.08-.09-.03-.03-.05-.06-.08-.09-.03-.03-.06-.06-.09-.09-.06-.06-.13-.12-.21-.17-.07-.06-.15-.11-.23-.16-.16-.1-.34-.19-.52-.27-.09-.04-.19-.07-.28-.11-.1-.03-.19-.06-.29-.09-.1-.02-.2-.04-.3-.07-.1-.02-.2-.03-.3-.04-.1-.01-.2-.02-.3-.02-.1-.01-.2,0-.29,0-.19,0-.38,0-.55.03-.09,0-.17.02-.25.04-.08.02-.16.02-.23.05-.08.02-.15.04-.22.06-.07.02-.13.04-.19.06-.12.04-.22.09-.3.12-.16.08-.26.12-.26.12Z"/>
              </g>
              <g>
                <path class="cls-21" d="M50.64,48.81c1.32-.61,2.95.11,3.63,1.6.68,1.49.16,3.19-1.16,3.79-1.32.61-2.95-.11-3.63-1.6-.68-1.49-.16-3.19,1.16-3.79Z"/>
                <path class="cls-4" d="M53.5,52.6c-1.32.61-2.95-.11-3.63-1.6-.24-.53-.32-.74-.27-1.26-.49.79-.57,1.87-.12,2.86.68,1.49,2.31,2.21,3.63,1.6.86-.39,1.37-1.24,1.45-2.19-.25.4-.61.39-1.06.59Z"/>
                <path class="cls-25" d="M50.55,48.86s.02,0,.07-.03c.04-.02.11-.05.19-.09.09-.02.19-.07.32-.09.06-.01.13-.03.2-.04.07,0,.15-.01.23-.02.08,0,.16,0,.25,0,.09,0,.18.02.27.03.09.02.18.04.28.06.09.03.18.06.28.1.09.04.18.09.28.13.09.06.18.1.27.17.17.12.34.26.48.42l.11.12.1.13.09.13.08.13c.06.09.11.18.15.27.02.05.05.09.07.14.02.05.04.09.05.14.04.09.07.18.09.28.01.05.02.09.04.14,0,.05.02.09.03.14.04.18.05.35.05.51,0,.08,0,.15,0,.23,0,.07-.02.14-.02.2-.01.13-.05.24-.06.33-.02.09-.05.16-.06.2-.02.05-.02.07-.02.07,0,0,.02-.1.05-.28,0-.09.03-.2.03-.33,0-.06,0-.13,0-.2,0-.07,0-.14-.01-.22-.01-.15-.04-.32-.08-.49-.01-.04-.02-.09-.03-.13-.01-.04-.03-.08-.04-.13-.01-.04-.03-.09-.04-.13-.02-.04-.04-.09-.06-.13-.02-.04-.04-.09-.06-.14-.02-.04-.05-.08-.07-.13-.05-.09-.09-.18-.15-.26l-.08-.13-.09-.12-.09-.12-.1-.11c-.14-.15-.29-.28-.45-.4-.08-.06-.17-.11-.25-.16-.08-.05-.17-.09-.26-.14-.09-.03-.18-.07-.26-.1-.09-.03-.17-.06-.26-.08-.09-.02-.17-.04-.25-.05-.08,0-.16-.02-.24-.02-.08,0-.15,0-.22,0-.07,0-.14.01-.2.02-.13,0-.23.04-.32.06-.18.06-.27.09-.27.09Z"/>
              </g>
              <g>
                <path class="cls-34" d="M56.52,45.9c1.07-.7,2.61-.23,3.44,1.05.83,1.28.64,2.88-.42,3.57-1.07.7-2.61.23-3.44-1.05-.83-1.27-.64-2.88.42-3.57Z"/>
                <path class="cls-6" d="M59.59,48.96c-1.07.7-2.61.23-3.44-1.05-.22-.33-.41-.4-.49-.75-.18.72-.04,1.57.44,2.31.83,1.28,2.37,1.75,3.44,1.05.79-.52,1.1-1.53.87-2.54-.13.52-.37.69-.82.98Z"/>
                <path class="cls-22" d="M56.44,45.95s.02-.01.06-.04c.04-.02.09-.06.17-.1.08-.04.17-.09.28-.12.11-.04.25-.07.39-.1.07,0,.15-.02.23-.02.08,0,.16,0,.25,0,.17.02.35.05.53.11.09.03.18.06.27.1l.13.06.13.07c.17.09.33.21.48.34.15.13.28.28.41.43.06.08.11.16.17.24.06.09.09.16.14.24.09.16.16.33.21.5.03.08.05.16.07.24.02.08.04.15.04.23,0,.07.02.14.03.21,0,.07,0,.13,0,.19,0,.12,0,.22-.01.31-.03.17-.05.26-.05.26,0,0,0-.1.01-.27,0-.08,0-.19-.02-.3-.01-.12-.03-.25-.07-.39-.01-.07-.03-.14-.06-.21-.02-.07-.04-.15-.08-.22-.06-.15-.14-.3-.22-.46-.05-.07-.1-.16-.14-.23-.06-.07-.11-.15-.17-.22-.12-.14-.25-.28-.39-.4-.14-.12-.29-.24-.45-.33l-.12-.07-.12-.06c-.08-.04-.17-.07-.25-.1-.17-.06-.33-.1-.49-.13-.08-.01-.16-.01-.24-.02-.08,0-.15,0-.22,0-.14.01-.27.03-.38.06-.12.02-.21.06-.29.09-.08.03-.14.07-.18.08-.04.02-.06.03-.06.03Z"/>
              </g>
            </g>
          </g>
          <g>
            <path d="M26.09,28.84c-.09-.29-.19-.59-.28-.88-.34.1-.67.2-1.01.31.55,1.61,1.1,3.22,1.65,4.84.31-.1.61-.19.92-.28-.09-.29-.19-.59-.28-.88.78-.23,1.56-.45,2.35-.65.12.45.24.9.37,1.34.32,1.2-.11,1.93-1.28,2.27-.59.17-1.17.35-1.76.54-1.16.38-1.96.03-2.42-1.13-.74-1.88-1.47-3.75-2.21-5.63-.46-1.15,0-1.99,1.39-2.45.69-.23,1.39-.44,2.09-.64,1.4-.4,2.27.03,2.6,1.22.12.45.24.9.37,1.34-.83.21-1.66.44-2.49.69Z"/>
            <path d="M31.22,32.29c-.48-1.95-.95-3.9-1.43-5.86-.3-1.2.26-1.97,1.69-2.25.71-.14,1.43-.26,2.14-.38,1.44-.22,2.24.31,2.4,1.53.27,1.99.53,3.98.8,5.97.16,1.23-.36,1.9-1.56,2.09-.6.1-1.2.2-1.8.32-1.19.23-1.93-.22-2.23-1.43ZM32.46,26.36c.33,1.67.66,3.33.99,5,.31-.06.63-.11.94-.17-.3-1.67-.6-3.34-.9-5.02-.34.06-.69.12-1.03.18Z"/>
            <path d="M39.57,23.14c1.26-.08,2.53-.13,3.79-.14-.17.77-.34,1.55-.5,2.32-.7.01-1.39.03-2.09.07-.35.02-.51.18-.49.49,0,.15.02.31.03.46.02.31.2.45.54.43.34-.02.68-.03,1.02-.04,1.36-.04,2.04.74,2.04,2.28,0,.46,0,.93,0,1.39,0,1.55-.61,2.31-1.82,2.34-1.06.04-2.13.1-3.19.2.08-.78.16-1.56.25-2.35.63-.05,1.27-.09,1.9-.13.32-.02.47-.18.46-.48,0-.15-.01-.31-.02-.46-.01-.31-.18-.46-.51-.44-.33.02-.65.03-.98.06-1.3.09-2.03-.6-2.2-2.14-.05-.46-.1-.92-.15-1.38-.17-1.53.47-2.38,1.92-2.48Z"/>
            <path d="M54.2,23.81c-.54,3.2-1.09,6.39-1.63,9.59-.75-.12-1.51-.22-2.26-.31.18-1.48.37-2.96.55-4.44-.51,1.44-1,2.89-1.46,4.35-.3-.03-.61-.06-.91-.08-.17-1.51-.37-3.01-.59-4.52-.11,1.48-.21,2.97-.32,4.45-.76-.05-1.52-.08-2.28-.1.09-3.24.17-6.48.26-9.72,1.08.03,2.17.08,3.25.16.23,1.72.42,3.44.59,5.16.5-1.66,1.02-3.31,1.58-4.96,1.08.12,2.16.26,3.23.43Z"/>
            <path d="M58.5,24.63c-.77,3.15-1.54,6.31-2.31,9.46-.74-.17-1.49-.32-2.24-.46.63-3.18,1.26-6.37,1.89-9.55.89.16,1.78.35,2.66.55Z"/>
            <path d="M62.74,29.15c.1-.29.2-.59.3-.88-.33-.11-.67-.21-1.01-.31-.52,1.62-1.04,3.24-1.56,4.86.31.09.61.19.92.28.1-.29.2-.59.3-.88.78.25,1.55.51,2.32.79-.17.43-.34.87-.51,1.3-.46,1.16-1.26,1.51-2.42,1.13-.58-.19-1.17-.37-1.76-.54-1.17-.34-1.6-1.08-1.28-2.27.53-1.94,1.06-3.88,1.59-5.82.32-1.19,1.19-1.62,2.6-1.22.7.2,1.4.42,2.09.64,1.39.46,1.85,1.3,1.39,2.45-.17.43-.34.87-.51,1.3-.81-.3-1.63-.58-2.46-.84Z"/>
          </g>
          <rect class="cls-20" x="4.13" y="65.95" width="82.16" height="18.43" rx="1.89" ry="1.89"/>
          <g>
            <path class="cls-42" d="M12.51,67.33c2.04,0,3.06.98,3.06,2.95v1.48c0,1.97-.77,3.08-2.3,3.32,1.53.25,2.3,1.35,2.3,3.32v1.48c0,1.97-1.02,2.95-3.06,2.95h-6.13v-15.51h6.13ZM11.75,73.24v-2.22h-1.53v2.22h1.53ZM11.75,79.15v-2.22h-1.53v2.22h1.53Z"/>
            <path class="cls-42" d="M17.91,79.89v-9.6c0-1.97,1.02-2.95,3.06-2.95h3.06c2.04,0,3.06.98,3.06,2.95v9.6c0,1.97-1.02,2.95-3.06,2.95h-3.06c-2.04,0-3.06-.98-3.06-2.95ZM21.74,71.02v8.12h1.53v-8.12h-1.53Z"/>
            <path class="cls-42" d="M36.97,78.41l-1.15,4.43h-3.83l-3.06-15.51h3.83l1.53,9.6,1.53-9.6h2.3l1.53,9.6,1.53-9.6h3.83l-3.06,15.51h-3.83l-1.15-4.43Z"/>
            <path class="cls-42" d="M47.34,67.33h3.83v11.82h3.06l-.77,3.69h-6.13v-15.51Z"/>
            <path class="cls-42" d="M60.4,67.33v15.51h-3.83v-15.51h3.83Z"/>
            <path class="cls-42" d="M66.56,76.93v5.91h-3.83v-15.51h3.06l2.3,5.91v-5.91h3.83v15.51h-3.06l-2.3-5.91Z"/>
            <path class="cls-42" d="M83.44,73.24v6.65c0,1.97-1.02,2.95-3.06,2.95h-3.06c-2.04,0-3.06-.98-3.06-2.95v-9.6c0-1.97,1.02-2.95,3.06-2.95h6.13l-.77,3.69h-4.6v8.12h1.53v-2.22h-.77v-3.69h4.6Z"/>
          </g>
        </g>
      </g>
    </g>
  </g>
</svg>